# xmcd
#
# Track frame offsets:
#	150
#	17253
#	37487
#	51840
#	75027
#	86160
#	97917
#	117224
#	135533
#	154048
#	170978
#	183381
#	197323
#	215953
#
# Disc length: 3039 seconds
#
# Revision: 1
# Processed by: cddbd v1.4PL0 Copyright (c) Steve Scherf et al.
# Submitted via: EasyCDDAExtractor 5.0.7
#
DISCID=b50bdd0e
DTITLE=Bert Wills - Tell Me Why
DYEAR=2000
DGENRE=Blues
TTITLE0=Tell Me Why
TTITLE1=Slow Blues Lullaby
TTITLE2=It Don't Bother Me
TTITLE3=Mr. Conductor
TTITLE4=Monkeyshine
TTITLE5=Roun' And Roun'
TTITLE6=Precious One
TTITLE7=Sleep Won't Come
TTITLE8=If You Can
TTITLE9=Northwest Blues
TTITLE10=The Bounce
TTITLE11=Daddy's Prayer
TTITLE12=Ooh Wee
TTITLE13=Feed The Hopeless
EXTD=
EXTT0=
EXTT1=
EXTT2=
EXTT3=
EXTT4=
EXTT5=
EXTT6=
EXTT7=
EXTT8=
EXTT9=
EXTT10=
EXTT11=
EXTT12=
EXTT13=
PLAYORDER=
